# xmcd
#
# Track frame offsets: 
#        150
#        15099
#        23174
#        31475
#        38260
#        45465
#        60773
#        75292
#        89983
#        109663
#        116825
#        123881
#        136356
#        145382
#        152848
#        160394
#        177359
#        183190
#        189788
#        202968
#        212781
#        220203
#
# Disc length: 3212 seconds
#
# Revision: 0
# Processed by: cddbd v1.5.2PL0 Copyright (c) Steve Scherf et al.
# Submitted via: ExactAudioCopy v0.95a5
#
DISCID=1b0c8a16
DTITLE=Various Artist - 老昆明童谣
DYEAR=2007
DGENRE=nursery rhyme
TTITLE0=哇哇歌
TTITLE1=螃蟹歌
TTITLE2=对歌调
TTITLE3=糯米团团
TTITLE4=大头大头
TTITLE5=海菜花
TTITLE6=一匹老马
TTITLE7=小和尚
TTITLE8=绣荷包
TTITLE9=城门几丈高
TTITLE10=玩猜猜
TTITLE11=花蝴蝶
TTITLE12=金蛐蛐
TTITLE13=小脸小脸
TTITLE14=数咕噜
TTITLE15=猜调新唱
TTITLE16=揍揍包
TTITLE17=躲猫猫
TTITLE18=放马山歌
TTITLE19=草铜锤
TTITLE20=揍揍什么样
TTITLE21=你听
EXTD=
EXTT0=
EXTT1=
EXTT2=
EXTT3=
EXTT4=
EXTT5=
EXTT6=
EXTT7=
EXTT8=
EXTT9=
EXTT10=
EXTT11=
EXTT12=
EXTT13=
EXTT14=
EXTT15=
EXTT16=
EXTT17=
EXTT18=
EXTT19=
EXTT20=
EXTT21=
PLAYORDER=
